<?xml version="1.0" encoding="UTF-8"?>
<svg width="256" height="256" version="1.1" viewBox="0 0 256 256" xmlns="http://www.w3.org/2000/svg">
    <g>
        <rect width="256" height="256" fill="#000000" rx="32"/>
        <path d="m128 256c70.692 0 128-57.308 128-128s-57.308-128-128-128c-70.692 0-128 57.308-128 128s57.308 128 128 128z" fill="#000000"/>
        <path d="M116.5 88.3c0 9.3-7.5 16.8-16.8 16.8s-16.8-7.5-16.8-16.8 7.5-16.8 16.8-16.8 16.8 7.5 16.8 16.8zM85.3 116.5h28.8v92.8H85.3v-92.8zm46.2 0h27.6v12.7h.4c3.8-7.3 13.2-14.9 27.2-14.9 29.1-.1 34.5 19.1 34.5 44v50.9h-28.8v-45.1c0-10.7-.2-24.5-14.9-24.5-14.9 0-17.2 11.7-17.2 23.7v45.9h-28.8v-92.7z" fill="#ffffff"/>
    </g>
</svg> 