<svg width="1547" height="251" viewBox="0 0 1547 251" fill="none" xmlns="http://www.w3.org/2000/svg">
<path d="M134.369 1.75081C135.103 0.679617 136.274 0.170632 137.572 0.125733C141.009 0.00683977 145.104 0.081541 148.297 0.0732606L170.827 0.0350809L194.931 0.0136288C195.877 0.0132713 196.836 0.0102799 197.801 0.00719061C204.158 -0.0131462 207.832 6.846 204.615 12.3289C198.379 22.9558 192.363 33.8148 185.985 44.265C181.858 51.0296 178.432 58.0784 174.41 64.9258L78.721 227.592C78.4681 228.017 78.3151 228.223 78.1367 228.342C77.5488 228.736 76.7619 228.646 76.0541 228.646L14.9124 228.65C8.97579 228.65 4.76923 221.056 7.77866 215.939L22.7957 190.441L99.6493 60.4683L122.888 20.9699C124.415 18.3734 131.371 6.1234 134.369 1.75081Z" fill="#F25C05"/>
<path d="M180.879 92.6631C181.8 91.1184 183.446 90.383 185.243 90.3499C186.965 90.3182 188.691 90.3053 190.402 90.3247C201.89 90.454 213.473 90.2051 225.012 90.2113C231.562 90.2148 235.521 97.57 232.261 103.251C229.516 108.035 226.801 112.887 224.477 116.831L194.662 167.232L186.071 181.903C185.524 182.844 184.527 184.795 183.549 186.21C182.756 187.358 181.387 187.761 179.992 187.765C165.694 187.807 150.131 188.109 135.507 187.922C131.172 187.867 128.193 182.259 130.397 178.527L141.432 159.776L175.461 102.635C176.459 100.946 179.046 95.7406 180.879 92.6631Z" fill="#F25C05"/>
<path d="M1492.46 204.222C1480.52 204.222 1469.92 201.708 1460.65 196.681C1451.38 191.497 1443.99 184.427 1438.5 175.472C1433.15 166.517 1430.48 156.306 1430.48 144.837C1430.48 133.526 1433.08 123.471 1438.26 114.673C1443.6 105.718 1450.83 98.6488 1459.94 93.4644C1469.05 88.1229 1479.18 85.4521 1490.34 85.4521C1501.34 85.4521 1511 87.9658 1519.32 92.9931C1527.81 97.8633 1534.41 104.619 1539.12 113.259C1543.99 121.743 1546.42 131.405 1546.42 142.245C1546.42 144.287 1546.27 146.408 1545.95 148.607C1545.8 150.65 1545.4 153.006 1544.78 155.677L1449.1 155.913V132.819L1530.4 132.583L1517.91 142.245C1517.6 135.489 1516.34 129.834 1514.14 125.278C1512.1 120.722 1509.03 117.265 1504.95 114.909C1501.02 112.395 1496.15 111.138 1490.34 111.138C1484.21 111.138 1478.87 112.552 1474.31 115.38C1469.76 118.051 1466.22 121.9 1463.71 126.927C1461.35 131.797 1460.18 137.61 1460.18 144.366C1460.18 151.278 1461.43 157.327 1463.95 162.511C1466.62 167.538 1470.39 171.466 1475.26 174.294C1480.13 176.965 1485.78 178.3 1492.22 178.3C1498.04 178.3 1503.3 177.357 1508.01 175.472C1512.73 173.43 1516.81 170.445 1520.27 166.517L1538.41 184.663C1532.91 191.104 1526.16 195.974 1518.15 199.273C1510.29 202.572 1501.73 204.222 1492.46 204.222Z" fill="#101111"/>
<path d="M1365.92 201.865V40.6777H1396.8V201.865H1365.92ZM1339.3 115.144V88.0442H1423.42V115.144H1339.3Z" fill="#101111"/>
<path d="M1271.28 204.222C1259.81 204.222 1249.44 201.63 1240.18 196.445C1231.06 191.104 1223.76 183.956 1218.26 175.001C1212.92 165.889 1210.25 155.756 1210.25 144.601C1210.25 133.447 1212.92 123.471 1218.26 114.673C1223.6 105.718 1230.91 98.6488 1240.18 93.4644C1249.44 88.1229 1259.73 85.4521 1271.05 85.4521C1282.67 85.4521 1293.04 88.1229 1302.15 93.4644C1311.42 98.6488 1318.73 105.718 1324.07 114.673C1329.41 123.471 1332.08 133.447 1332.08 144.601C1332.08 155.756 1329.41 165.889 1324.07 175.001C1318.73 183.956 1311.42 191.104 1302.15 196.445C1293.04 201.63 1282.75 204.222 1271.28 204.222ZM1271.05 175.472C1276.86 175.472 1281.96 174.215 1286.36 171.702C1290.92 169.031 1294.38 165.417 1296.73 160.861C1299.25 156.148 1300.5 150.807 1300.5 144.837C1300.5 138.867 1299.25 133.604 1296.73 129.048C1294.22 124.492 1290.76 120.957 1286.36 118.444C1281.96 115.773 1276.86 114.438 1271.05 114.438C1265.39 114.438 1260.36 115.773 1255.96 118.444C1251.57 120.957 1248.11 124.492 1245.6 129.048C1243.08 133.604 1241.83 138.867 1241.83 144.837C1241.83 150.807 1243.08 156.148 1245.6 160.861C1248.11 165.417 1251.57 169.031 1255.96 171.702C1260.36 174.215 1265.39 175.472 1271.05 175.472Z" fill="#101111"/>
<path d="M1141.83 204.222C1131.78 204.222 1122.82 202.101 1114.97 197.859C1107.27 193.617 1101.22 187.726 1096.82 180.185C1092.42 172.644 1090.22 163.925 1090.22 154.027V88.0442H1121.33V153.32C1121.33 158.033 1122.12 162.118 1123.69 165.574C1125.26 168.874 1127.61 171.387 1130.76 173.115C1133.9 174.843 1137.59 175.708 1141.83 175.708C1148.27 175.708 1153.3 173.744 1156.91 169.816C1160.53 165.889 1162.33 160.39 1162.33 153.32V88.0442H1193.21V154.027C1193.21 164.082 1191.01 172.88 1186.61 180.421C1182.36 187.962 1176.32 193.853 1168.46 198.095C1160.76 202.179 1151.89 204.222 1141.83 204.222Z" fill="#101111"/>
<path d="M981.043 204.457C968.946 204.457 957.634 202.258 947.108 197.859C936.74 193.46 927.628 187.412 919.773 179.714C911.917 171.859 905.79 162.747 901.391 152.378C897.15 141.852 895.029 130.619 895.029 118.679C895.029 106.74 897.15 95.6638 901.391 85.4521C905.79 75.0833 911.839 66.0499 919.537 58.3518C927.392 50.4967 936.504 44.4482 946.873 40.2065C957.242 35.8076 968.474 33.6082 980.571 33.6082C992.668 33.6082 1003.9 35.8076 1014.27 40.2065C1024.64 44.4482 1033.75 50.4967 1041.61 58.3518C1049.46 66.0499 1055.51 75.0833 1059.75 85.4521C1064.15 95.8209 1066.35 106.975 1066.35 118.915C1066.35 130.855 1064.15 142.009 1059.75 152.378C1055.51 162.747 1049.46 171.859 1041.61 179.714C1033.91 187.412 1024.87 193.46 1014.51 197.859C1004.14 202.258 992.982 204.457 981.043 204.457ZM980.571 174.529C991.097 174.529 1000.29 172.173 1008.14 167.46C1016.16 162.747 1022.36 156.227 1026.76 147.9C1031.32 139.574 1033.59 129.834 1033.59 118.679C1033.59 110.51 1032.26 103.048 1029.59 96.2922C1027.07 89.5367 1023.46 83.7239 1018.75 78.8538C1014.03 73.8265 1008.46 69.9775 1002.02 67.3067C995.575 64.636 988.426 63.3006 980.571 63.3006C970.203 63.3006 961.012 65.6571 953 70.3702C945.145 74.9262 938.939 81.3674 934.383 89.6939C929.984 98.0203 927.785 107.682 927.785 118.679C927.785 127.006 929.042 134.625 931.555 141.538C934.226 148.45 937.839 154.342 942.395 159.212C947.108 164.082 952.686 167.852 959.127 170.523C965.725 173.194 972.873 174.529 980.571 174.529ZM1055.74 214.119L979.864 138.239L999.188 118.679L1075.3 194.796L1055.74 214.119Z" fill="#101111"/>
<path d="M797.241 202.101L751.053 86.6304H794.884L823.163 181.599H805.96L834.474 86.6304H878.306L830.939 201.865L797.241 202.101ZM769.905 250.646L804.075 175.472L830.939 201.865L811.145 250.646H769.905Z" fill="#F25C05"/>
<path d="M689.708 201.865V30.0732H730.712V201.865H689.708Z" fill="#F25C05"/>
<path d="M616.581 201.865V30.0732H657.585V201.865H616.581Z" fill="#F25C05"/>
<path d="M514.664 204.222C503.981 204.222 494.476 201.629 486.15 196.445C477.823 191.261 471.303 184.191 466.59 175.236C461.877 166.124 459.521 155.834 459.521 144.366C459.521 132.74 461.877 122.371 466.59 113.259C471.303 104.147 477.823 97.0776 486.15 92.0503C494.476 86.8659 503.981 84.2737 514.664 84.2737C521.891 84.2737 528.489 85.6091 534.459 88.2798C540.429 90.7934 545.299 94.4068 549.069 99.1199C552.997 103.833 555.353 109.174 556.139 115.144V173.115C555.353 179.242 552.997 184.662 549.069 189.375C545.299 193.931 540.429 197.545 534.459 200.216C528.489 202.886 521.891 204.222 514.664 204.222ZM523.383 167.695C530.138 167.695 535.559 165.496 539.643 161.097C543.885 156.698 546.006 151.042 546.006 144.13C546.006 139.574 545.063 135.568 543.178 132.111C541.293 128.655 538.622 125.906 535.166 123.864C531.867 121.821 528.018 120.8 523.619 120.8C519.22 120.8 515.292 121.821 511.836 123.864C508.537 125.906 505.866 128.734 503.824 132.347C501.939 135.803 500.996 139.731 500.996 144.13C500.996 148.686 501.939 152.77 503.824 156.384C505.709 159.84 508.38 162.589 511.836 164.632C515.292 166.674 519.141 167.695 523.383 167.695ZM544.356 201.865V170.994L550.248 142.716L544.356 114.909V86.6302H584.653V201.865H544.356Z" fill="#F25C05"/>
<path d="M375.379 201.865V35.9646H417.561V201.865H375.379ZM324.242 71.0771V34.7864H468.698V71.0771H324.242Z" fill="#F25C05"/>
</svg>
